<svg xmlns="http://www.w3.org/2000/svg" viewBox="0 0 140 140" fill="none">
  <defs>
    <linearGradient id="p1" x1="0" y1="0" x2="0" y2="1">
      <stop offset="0%" stop-color="#9333EA"/>
      <stop offset="100%" stop-color="#5B21B6"/>
    </linearGradient>
    <linearGradient id="p2" x1="0" y1="0" x2="0" y2="1">
      <stop offset="0%" stop-color="#7C3AED"/>
      <stop offset="100%" stop-color="#4C1D95"/>
    </linearGradient>
    <linearGradient id="g1" x1="0" y1="0" x2="0" y2="1">
      <stop offset="0%" stop-color="#FCD34D"/>
      <stop offset="100%" stop-color="#D97706"/>
    </linearGradient>
    <linearGradient id="g2" x1="0" y1="0" x2="1" y2="0">
      <stop offset="0%" stop-color="#FBBF24"/>
      <stop offset="100%" stop-color="#D97706"/>
    </linearGradient>
  </defs>
  <rect width="140" height="140" rx="22" fill="#000000"/>
  <rect x="42" y="32" width="14" height="58" fill="url(#p1)"/>
  <rect x="58" y="24" width="16" height="66" fill="url(#g1)"/>
  <rect x="76" y="30" width="14" height="60" fill="url(#p2)"/>
  <rect x="92" y="40" width="12" height="50" fill="url(#p1)"/>
  <path d="M30 94 L72 60 L114 94 Z" fill="url(#p1)"/>
  <rect x="42" y="90" width="60" height="20" fill="url(#p2)"/>
  <rect x="64" y="94" width="16" height="14" fill="#FBBF24"/>
  <line x1="72" y1="94" x2="72" y2="108" stroke="#1F1F1F" stroke-width="1.2"/>
  <line x1="64" y1="101" x2="80" y2="101" stroke="#1F1F1F" stroke-width="1.2"/>
  <circle cx="28" cy="118" r="11" fill="none" stroke="url(#g2)" stroke-width="5"/>
  <rect x="38" y="115" width="70" height="6" fill="url(#g2)"/>
  <rect x="96" y="121" width="6" height="9" fill="url(#g2)"/>
  <rect x="104" y="121" width="6" height="6" fill="url(#g2)"/>
</svg>
